<?xml version="1.0" ?><svg height="1024" preserveAspectRatio="xMidYMid" viewBox="0 0 1024 1024" width="1024" xmlns="http://www.w3.org/2000/svg" xmlns:xlink="http://www.w3.org/1999/xlink"><defs><style>
      .cls-1, .cls-3 {
        fill: #fff;
      }

      .cls-2 {
        fill: #cd201f;
      }

      .cls-3, .cls-4, .cls-5, .cls-6, .cls-7 {
        fill-rule: evenodd;
      }

      .cls-4, .cls-5, .cls-6 {
        fill: #010101;
      }

      .cls-4 {
        opacity: 0.05;
      }

      .cls-5 {
        opacity: 0.1;
      }

      .cls-6 {
        opacity: 0.15;
      }

      .cls-7 {
        fill: #000;
        opacity: 0.2;
      }
    </style></defs><circle class="cls-1" cx="512" cy="512" r="512"/><circle class="cls-2" cx="513" cy="513" r="501"/><path class="cls-3" d="M834.448,832.258 C826.278,867.670 797.257,893.796 762.345,897.695 C679.620,906.923 595.908,906.965 512.545,906.923 C429.187,906.965 345.458,906.923 262.754,897.695 C227.826,893.796 198.821,867.670 190.663,832.258 C179.038,781.823 179.038,726.776 179.038,674.847 C179.038,622.909 179.178,567.861 190.804,517.419 C198.962,482.015 227.962,455.889 262.878,451.989 C345.598,442.766 429.323,442.724 512.694,442.766 C596.036,442.724 679.774,442.766 762.473,451.989 C797.409,455.880 826.431,482.006 834.585,517.419 C846.211,567.861 846.125,622.909 846.125,674.847 C846.125,726.776 846.057,781.823 834.448,832.258 ZM369.321,514.564 L228.791,514.564 L228.791,556.519 L276.193,556.519 L276.193,812.640 L321.040,812.640 L321.040,556.519 L369.321,556.519 L369.321,514.564 ZM491.124,590.538 L450.783,590.538 L450.783,760.277 C441.837,772.902 433.386,779.121 425.297,779.121 C419.893,779.121 416.837,775.953 415.868,769.708 C415.501,768.390 415.501,763.489 415.501,754.058 L415.501,590.538 L375.194,590.538 L375.194,766.156 C375.194,781.832 376.556,792.460 378.752,799.181 C382.786,810.431 391.726,815.690 404.722,815.690 C419.548,815.690 434.761,806.751 450.791,788.408 L450.791,812.640 L491.124,812.640 L491.124,590.538 ZM644.283,657.532 C644.283,636.503 642.913,621.822 640.199,612.883 C634.820,596.256 624.037,587.827 607.994,587.827 C593.177,587.827 579.347,595.916 566.333,611.915 L566.333,514.564 L526.026,514.564 L526.026,812.640 L566.333,812.640 L566.333,791.118 C579.806,807.737 593.653,815.690 607.994,815.690 C624.037,815.690 634.820,807.252 640.199,790.727 C642.896,781.314 644.283,766.522 644.283,745.978 L644.283,657.532 ZM796.439,662.943 C796.439,639.205 792.405,621.838 783.963,610.615 C772.669,595.415 756.626,587.845 736.404,587.845 C715.808,587.845 699.757,595.415 688.114,610.615 C679.552,621.838 675.654,639.205 675.654,662.943 L675.654,740.735 C675.654,764.338 680.045,781.840 688.608,792.962 C700.250,808.128 716.310,815.706 737.391,815.706 C758.447,815.706 774.992,807.754 786.158,791.628 C791.044,784.508 794.210,776.428 795.571,767.516 C795.928,763.489 796.423,754.559 796.423,741.585 L796.423,735.714 L755.298,735.714 C755.298,751.849 754.771,760.795 754.405,762.979 C752.098,773.735 746.311,779.121 736.387,779.121 C722.540,779.121 715.791,768.858 715.791,748.297 L715.791,708.925 L796.423,708.925 L796.439,708.925 L796.439,662.943 ZM715.791,654.863 C715.791,634.328 722.549,624.056 736.030,624.056 C749.366,624.056 756.098,634.328 756.098,654.863 L756.098,675.416 L715.791,675.416 L715.791,654.863 ZM586.428,779.121 C579.789,779.121 573.066,775.944 566.325,769.206 L566.325,633.844 C573.066,627.190 579.797,624.056 586.428,624.056 C598.053,624.056 603.960,634.328 603.960,654.362 L603.960,749.146 C603.960,769.206 598.053,779.121 586.428,779.121 ZM655.484,394.732 C639.270,413.284 623.806,422.295 608.946,422.295 C595.823,422.295 586.785,416.988 582.708,405.616 C580.461,398.823 579.091,388.097 579.091,372.242 L579.091,194.759 L619.713,194.759 L619.713,360.013 C619.713,369.537 619.713,374.490 620.198,375.820 C621.092,382.128 624.301,385.348 629.748,385.348 C637.909,385.348 646.462,379.049 655.484,366.312 L655.484,194.759 L696.234,194.759 L696.234,419.218 L655.484,419.218 L655.484,394.732 ZM485.396,422.295 C465.089,422.295 449.230,414.631 437.961,399.320 C429.305,388.088 425.212,370.390 425.212,346.533 L425.212,267.938 C425.212,243.941 429.305,226.404 437.961,215.065 C449.238,199.709 465.089,192.045 485.396,192.045 C505.809,192.045 521.660,199.709 532.920,215.065 C541.474,226.404 545.567,243.941 545.567,267.938 L545.567,346.533 C545.567,370.390 541.474,388.088 532.920,399.320 C521.669,414.631 505.809,422.295 485.396,422.295 ZM504.822,259.786 C504.822,239.008 498.532,228.664 485.396,228.664 C472.263,228.664 465.953,239.016 465.953,259.786 L465.953,354.201 C465.953,374.966 472.263,385.357 485.396,385.357 C498.532,385.357 504.822,374.966 504.822,354.201 L504.822,259.786 ZM370.487,419.218 L325.312,419.218 L325.312,297.229 C321.223,275.619 312.176,243.948 297.682,201.947 C288.158,174.003 278.248,145.944 268.725,118.025 L316.265,118.025 L348.334,236.302 L379.160,118.025 L424.846,118.025 L370.487,297.229 L370.487,419.218 Z"/><path class="cls-4" d="M0.008,509.066 C0.003,510.043 0.000,511.021 0.000,512.000 C0.000,794.770 229.230,1024.000 512.000,1024.000 C626.613,1024.000 732.430,986.341 817.752,922.721 L0.008,509.066 Z"/><path class="cls-5" d="M0.031,517.724 C0.010,515.819 0.000,513.911 0.000,512.000 C0.000,368.971 58.648,239.640 153.208,146.743 L874.075,874.003 C856.305,891.776 837.234,908.249 817.018,923.267 L0.031,517.724 Z"/><path class="cls-6" d="M872.758,875.315 C889.442,858.747 904.991,841.039 919.279,822.316 L495.341,0.266 C359.576,4.606 237.155,61.801 147.982,151.951 L872.758,875.315 Z"/><path class="cls-7" d="M918.196,823.730 C984.551,737.396 1024.000,629.305 1024.000,512.000 C1024.000,229.230 794.770,-0.000 512.000,-0.000 C504.185,-0.000 496.410,0.175 488.680,0.522 L918.196,823.730 Z"/></svg>